<?xml version="1.0" encoding="UTF-8"?>
<!-- Generator: visioncortex VTracer 0.6.3 -->
<svg version="1.1" xmlns="http://www.w3.org/2000/svg" width="1280" height="1280">
<path d="M0 0 C422.4 0 844.8 0 1280 0 C1280 422.4 1280 844.8 1280 1280 C857.6 1280 435.2 1280 0 1280 C0 857.6 0 435.2 0 0 Z " fill="#000002" transform="translate(0,0)"/>
<path d="M0 0 C1.78 -0.03 3.56 -0.09 5.34 -0.16 C20 -0.79 20 -0.79 24.51 2.58 C26.37 5.19 27.67 7.78 29 10.7 C30.16 12.57 31.34 14.42 32.54 16.26 C33.76 18.22 34.97 20.18 36.19 22.14 C37.5 24.25 38.81 26.35 40.12 28.46 C42.01 31.5 43.9 34.55 45.79 37.59 C47.42 40.22 49.05 42.83 50.69 45.45 C51.17 46.23 51.65 47.01 52.14 47.81 C54.47 51.52 56.69 54.76 60 57.7 C67.32 46.45 74.54 35.13 81.69 23.77 C84.44 19.4 87.21 15.04 90 10.7 C90.55 9.83 91.11 8.97 91.68 8.08 C92.49 6.84 92.49 6.84 93.31 5.58 C94.02 4.49 94.02 4.49 94.74 3.38 C96 1.7 96 1.7 98 0.7 C100.84 0.61 103.66 0.58 106.51 0.6 C107.35 0.6 108.19 0.61 109.05 0.61 C111.74 0.61 114.43 0.62 117.12 0.64 C118.94 0.64 120.77 0.65 122.59 0.65 C127.06 0.66 131.53 0.68 136 0.7 C137.52 3.75 137.13 6.93 137.11 10.27 C137.11 11.05 137.11 11.83 137.11 12.64 C137.11 15.22 137.1 17.81 137.1 20.4 C137.09 22.19 137.09 23.98 137.09 25.77 C137.09 30.49 137.08 35.2 137.07 39.92 C137.06 44.74 137.05 49.55 137.05 54.36 C137.04 63.81 137.02 73.25 137 82.7 C132.34 82.72 127.67 82.74 123.01 82.76 C121.42 82.76 119.84 82.77 118.25 82.78 C115.97 82.79 113.69 82.79 111.41 82.8 C110.35 82.81 110.35 82.81 109.26 82.81 C104.23 82.81 104.23 82.81 102 81.7 C102 66.52 102 51.34 102 35.7 C101.34 35.7 100.68 35.7 100 35.7 C99.74 36.39 99.49 37.09 99.23 37.8 C97.84 41.07 96.17 44.02 94.37 47.08 C94.01 47.68 93.65 48.29 93.29 48.91 C92.53 50.19 91.78 51.47 91.02 52.75 C89.52 55.29 88.03 57.84 86.54 60.38 C85.8 61.64 85.05 62.89 84.3 64.13 C82.44 67.2 80.69 70.27 79.12 73.49 C74.81 82.03 74.81 82.03 70.02 83.81 C66.52 84.2 63.32 84.14 59.81 83.89 C58.65 83.88 57.49 83.87 56.29 83.86 C51.33 83.69 48.07 83.57 44.15 80.4 C43.39 79.2 42.68 77.96 42 76.7 C41.46 75.81 40.93 74.93 40.37 74.01 C38.45 70.79 36.59 67.53 34.75 64.26 C33.42 61.93 32.09 59.6 30.76 57.27 C30.12 56.14 29.48 55.02 28.82 53.86 C26.11 49.15 23.3 44.5 20.44 39.89 C18 35.91 18 35.91 18 33.7 C17.34 33.7 16.68 33.7 16 33.7 C16 49.87 16 66.04 16 82.7 C10.57 82.72 5.15 82.74 -0.44 82.76 C-2.15 82.77 -3.87 82.78 -5.63 82.79 C-6.98 82.79 -8.33 82.8 -9.69 82.8 C-10.39 82.8 -11.1 82.81 -11.83 82.81 C-13.55 82.81 -15.28 82.76 -17 82.7 C-18.7 81 -18.13 78.86 -18.15 76.58 C-18.15 75.85 -18.15 75.12 -18.15 74.37 C-18.15 73.6 -18.15 72.83 -18.16 72.04 C-18.17 69.49 -18.17 66.94 -18.17 64.39 C-18.17 62.63 -18.18 60.86 -18.18 59.1 C-18.19 55.39 -18.19 51.69 -18.19 47.98 C-18.19 43.23 -18.2 38.47 -18.22 33.71 C-18.23 30.07 -18.23 26.42 -18.23 22.77 C-18.23 21.02 -18.24 19.27 -18.24 17.51 C-18.25 15.06 -18.25 12.61 -18.24 10.16 C-18.25 9.43 -18.26 8.7 -18.26 7.95 C-18.2 -2.41 -8.04 0.11 0 0 Z " fill="#F7F7F7" transform="translate(1129.001708984375,564.2998046875)"/>
<path d="M0 0 C7.68 6.64 13.19 15.84 14.21 26.09 C14.3 28.33 14.33 30.57 14.31 32.81 C14.31 33.61 14.3 34.4 14.3 35.22 C14.04 47.4 10.1 55.27 1.38 63.69 C-13.55 75.98 -36.6 76.29 -54.95 74.57 C-70.15 72.86 -83.83 68.16 -94 56 C-97.16 50.75 -99.62 45.17 -100 39 C-100.06 38.15 -100.12 37.3 -100.19 36.43 C-100.67 24.94 -97.68 13.76 -90 5 C-68.78 -16.57 -24.25 -15.6 0 0 Z " fill="#F7F7F7" transform="translate(698,574)"/>
<path d="M0 0 C1.88 -0.01 1.88 -0.01 3.8 -0.03 C5.18 -0.03 6.56 -0.03 7.94 -0.03 C9.37 -0.03 10.8 -0.03 12.22 -0.04 C15.23 -0.05 18.24 -0.05 21.24 -0.04 C24.29 -0.04 27.33 -0.04 30.38 -0.06 C83.12 -0.38 83.12 -0.38 95.47 10.39 C102.56 17.88 103.52 24.5 103.36 34.64 C102.68 42.55 98.89 47.18 93.05 52.27 C91.56 52.77 91.56 52.77 90.05 53.27 C90.98 54 91.9 54.72 92.86 55.46 C98.23 59.64 99.75 65.05 101.24 71.4 C101.41 72.12 101.59 72.83 101.77 73.57 C102.49 76.54 103.05 79.21 103.05 82.27 C98.69 82.32 94.33 82.36 89.97 82.38 C88.48 82.39 87 82.41 85.52 82.43 C83.39 82.45 81.25 82.46 79.12 82.47 C77.2 82.49 77.2 82.49 75.23 82.5 C72.05 82.27 72.05 82.27 69.05 80.27 C68.02 77.67 68.02 77.67 67.11 74.52 C64.7 66.45 64.7 66.45 58.67 60.96 C51.81 59.16 45.22 59.16 38.17 59.21 C34.5 59.23 30.83 59.25 27.05 59.27 C26.72 66.86 26.39 74.45 26.05 82.27 C21.37 82.3 16.68 82.32 12 82.33 C10.41 82.33 8.82 82.34 7.22 82.35 C4.94 82.36 2.65 82.37 0.36 82.37 C-0.35 82.38 -1.07 82.38 -1.81 82.39 C-3.52 82.39 -5.24 82.34 -6.95 82.27 C-8.66 80.57 -8.08 78.43 -8.1 76.16 C-8.1 75.43 -8.1 74.7 -8.1 73.94 C-8.1 73.17 -8.1 72.41 -8.11 71.62 C-8.12 69.07 -8.12 66.52 -8.12 63.97 C-8.12 62.2 -8.13 60.44 -8.13 58.67 C-8.14 54.97 -8.14 51.26 -8.14 47.56 C-8.14 42.8 -8.15 38.04 -8.17 33.29 C-8.18 29.64 -8.18 25.99 -8.18 22.35 C-8.18 20.59 -8.19 18.84 -8.19 17.09 C-8.2 14.64 -8.2 12.19 -8.2 9.74 C-8.2 9.01 -8.21 8.28 -8.21 7.53 C-8.17 0.8 -6.44 0.03 0 0 Z " fill="#F7F7F7" transform="translate(856.952392578125,564.725341796875)"/>
<path d="M0 0 C1.88 -0.01 1.88 -0.01 3.8 -0.03 C5.18 -0.03 6.56 -0.03 7.94 -0.03 C9.37 -0.03 10.8 -0.03 12.22 -0.04 C15.23 -0.05 18.24 -0.05 21.24 -0.04 C24.29 -0.04 27.33 -0.04 30.38 -0.06 C82.74 -0.38 82.74 -0.38 95.22 10.09 C101.16 16.35 103.18 22.24 103.42 30.77 C103.23 37.35 102.73 42.36 98.17 47.31 C92.8 52.27 92.8 52.27 89.05 52.27 C89.05 52.93 89.05 53.59 89.05 54.27 C90.13 54.52 90.13 54.52 91.24 54.77 C95.47 57.03 97.26 59.96 99.05 64.27 C100.73 70.19 101.89 76.24 103.05 82.27 C98.69 82.32 94.33 82.36 89.97 82.38 C88.48 82.39 87 82.41 85.52 82.43 C83.39 82.45 81.25 82.46 79.12 82.47 C77.2 82.49 77.2 82.49 75.23 82.5 C72.05 82.27 72.05 82.27 69.05 80.27 C67.65 76.78 66.56 73.24 65.43 69.66 C63.77 65.59 61.85 63.41 58.17 61.09 C51.77 58.64 44.91 59.16 38.17 59.21 C34.5 59.23 30.83 59.25 27.05 59.27 C26.72 66.86 26.39 74.45 26.05 82.27 C21.37 82.3 16.68 82.32 12 82.33 C10.41 82.33 8.82 82.34 7.22 82.35 C4.94 82.36 2.65 82.37 0.36 82.37 C-0.35 82.38 -1.07 82.38 -1.81 82.39 C-3.52 82.39 -5.24 82.34 -6.95 82.27 C-8.66 80.57 -8.08 78.43 -8.1 76.16 C-8.1 75.43 -8.1 74.7 -8.1 73.94 C-8.1 73.17 -8.1 72.41 -8.11 71.62 C-8.12 69.07 -8.12 66.52 -8.12 63.97 C-8.12 62.2 -8.13 60.44 -8.13 58.67 C-8.14 54.97 -8.14 51.26 -8.14 47.56 C-8.14 42.8 -8.15 38.04 -8.17 33.29 C-8.18 29.64 -8.18 25.99 -8.18 22.35 C-8.18 20.59 -8.19 18.84 -8.19 17.09 C-8.2 14.64 -8.2 12.19 -8.2 9.74 C-8.2 9.01 -8.21 8.28 -8.21 7.53 C-8.17 0.8 -6.44 0.03 0 0 Z " fill="#F7F7F7" transform="translate(485.952392578125,564.725341796875)"/>
<path d="M0 0 C1.88 -0.01 1.88 -0.01 3.8 -0.03 C5.18 -0.03 6.56 -0.03 7.94 -0.03 C9.37 -0.03 10.8 -0.03 12.22 -0.04 C15.23 -0.05 18.24 -0.05 21.24 -0.04 C24.29 -0.04 27.33 -0.04 30.38 -0.06 C83.13 -0.38 83.13 -0.38 95.22 10.17 C100.76 16.16 103.61 21.88 103.49 30.15 C103.48 30.86 103.47 31.57 103.46 32.3 C103.22 39.83 101.31 44.32 95.99 49.52 C82.66 59.96 63.27 58.64 47.3 58.9 C45.33 58.94 43.36 58.98 41.39 59.02 C36.61 59.11 31.83 59.2 27.05 59.27 C27.05 59.94 27.06 60.6 27.06 61.28 C27.08 64.26 27.1 67.23 27.11 70.21 C27.12 71.25 27.13 72.29 27.14 73.37 C27.14 74.36 27.14 75.35 27.15 76.36 C27.15 77.28 27.16 78.2 27.16 79.14 C27.05 81.27 27.05 81.27 26.05 82.27 C23.7 82.38 21.37 82.41 19.02 82.41 C18.32 82.41 17.61 82.41 16.89 82.41 C15.39 82.41 13.9 82.41 12.41 82.41 C10.12 82.4 7.84 82.4 5.55 82.41 C4.1 82.41 2.66 82.41 1.21 82.41 C0.52 82.41 -0.17 82.41 -0.87 82.41 C-5.72 82.39 -5.72 82.39 -7.95 81.27 C-8 71.01 -8.03 60.74 -8.06 50.48 C-8.07 45.71 -8.08 40.94 -8.1 36.18 C-8.12 31.58 -8.14 26.98 -8.14 22.39 C-8.15 20.63 -8.15 18.87 -8.16 17.12 C-8.18 14.66 -8.18 12.21 -8.18 9.75 C-8.19 9.02 -8.19 8.29 -8.2 7.54 C-8.17 0.8 -6.45 0.03 0 0 Z " fill="#F7F7F7" transform="translate(360.952392578125,564.725341796875)"/>
<path d="M0 0 C5.07 4.57 9.09 9.83 12 16 C12 17.32 12 18.64 12 20 C6.98 20.12 1.97 20.21 -3.05 20.27 C-4.76 20.3 -6.46 20.33 -8.17 20.38 C-10.62 20.44 -13.08 20.47 -15.54 20.49 C-16.67 20.53 -16.67 20.53 -17.83 20.57 C-23.6 20.57 -25.88 18.99 -30 15 C-36.14 11.93 -44.05 11.9 -50.6 13.72 C-55.97 15.94 -60.36 18.66 -63 24.04 C-65.54 30.65 -65.24 35.48 -62.88 42.19 C-59.9 46.64 -56.06 49.31 -51 51 C-47.59 51.23 -44.17 51.19 -40.75 51.19 C-39.36 51.21 -39.36 51.21 -37.93 51.22 C-32.55 51.24 -28.09 50.78 -23 49 C-23.71 48.87 -24.42 48.73 -25.15 48.6 C-26.07 48.42 -26.99 48.24 -27.94 48.06 C-28.85 47.89 -29.77 47.71 -30.71 47.54 C-33 47 -33 47 -34 46 C-34.13 44.02 -34.18 42.04 -34.19 40.06 C-34.2 38.98 -34.22 37.9 -34.23 36.79 C-34 34 -34 34 -32 32 C-30.13 31.75 -30.13 31.75 -27.84 31.76 C-26.56 31.75 -26.56 31.75 -25.24 31.75 C-24.32 31.75 -23.39 31.76 -22.43 31.77 C-21.48 31.77 -20.54 31.77 -19.56 31.77 C-17.55 31.77 -15.54 31.78 -13.53 31.79 C-10.45 31.81 -7.36 31.81 -4.28 31.81 C-2.33 31.82 -0.38 31.83 1.57 31.83 C2.96 31.83 2.96 31.83 4.38 31.84 C5.24 31.84 6.09 31.85 6.97 31.85 C8.1 31.86 8.1 31.86 9.26 31.87 C11 32 11 32 12 33 C12.16 35.96 12.26 38.89 12.32 41.85 C12.34 42.73 12.36 43.62 12.38 44.53 C12.44 47.38 12.5 50.22 12.56 53.06 C12.61 54.99 12.65 56.91 12.69 58.83 C12.8 63.55 12.9 68.28 13 73 C10.71 73.03 8.42 73.05 6.12 73.06 C4.85 73.07 3.57 73.09 2.26 73.1 C-1 73 -1 73 -3 72 C-3.62 69.44 -3.62 69.44 -4 67 C-4.99 67.41 -5.99 67.82 -7.01 68.24 C-27.85 76.61 -53.69 78.57 -75 70 C-86.11 65.01 -93.27 58.89 -98.09 47.61 C-101.59 37.55 -101.26 25.76 -97 16 C-91.07 3.75 -82.24 -2.78 -69.57 -7.2 C-47.9 -13.7 -19.22 -12.93 0 0 Z " fill="#F7F7F7" transform="translate(821,574)"/>
<path d="M0 0 C10.14 3.47 15.23 15.78 19.83 24.8 C22.18 29.35 24.87 33.65 27.6 37.98 C28.46 39.4 29.31 40.82 30.16 42.24 C32.93 46.81 35.9 51.24 38.89 55.67 C42.49 61.01 45.91 66.46 49.29 71.96 C50.91 74.57 52.52 77.12 54.39 79.56 C55.6 81.23 55.6 81.23 55.6 83.23 C50.99 83.36 46.39 83.45 41.78 83.51 C40.21 83.53 38.64 83.57 37.08 83.61 C34.82 83.67 32.57 83.7 30.31 83.72 C29.61 83.75 28.92 83.77 28.2 83.8 C24.61 83.8 22.81 83.39 19.93 81.2 C17.6 78.23 17.6 78.23 16.57 76.15 C15.42 73.86 14.39 72.08 12.6 70.23 C8.95 69.06 5.45 69.18 1.64 69.28 C0.05 69.29 0.05 69.29 -1.58 69.31 C-3.83 69.33 -6.08 69.38 -8.33 69.45 C-11.76 69.54 -15.18 69.54 -18.61 69.52 C-29.77 69.25 -29.77 69.25 -39.46 73.76 C-41.24 76.56 -42.41 79.07 -43.4 82.23 C-44.4 83.23 -44.4 83.23 -47.54 83.35 C-48.93 83.35 -50.32 83.34 -51.71 83.33 C-52.45 83.33 -53.18 83.33 -53.93 83.33 C-56.27 83.32 -58.62 83.31 -60.96 83.29 C-62.55 83.29 -64.13 83.28 -65.72 83.28 C-69.61 83.27 -73.5 83.25 -77.4 83.23 C-77.4 78.87 -76.88 77.97 -74.54 74.48 C-73.62 73.09 -73.62 73.09 -72.67 71.67 C-71.67 70.18 -71.67 70.18 -70.65 68.67 C-69.26 66.58 -67.87 64.49 -66.48 62.4 C-65.79 61.35 -65.1 60.31 -64.38 59.24 C-61.61 55.05 -58.94 50.8 -56.27 46.54 C-51.61 39.12 -46.86 31.74 -42.06 24.4 C-39.58 20.59 -37.1 16.78 -34.68 12.93 C-34.27 12.28 -33.86 11.63 -33.44 10.96 C-32.35 9.24 -31.28 7.51 -30.2 5.79 C-24.24 -2.65 -9.14 -1.31 0 0 Z " fill="#F7F7F7" transform="translate(1045.39794921875,563.76806640625)"/>
<path d="M0 0 C1.92 0.01 1.92 0.01 3.88 0.01 C4.91 0.01 4.91 0.01 5.95 0.01 C7.4 0.02 8.84 0.02 10.28 0.04 C12.5 0.06 14.72 0.06 16.93 0.06 C27.8 0.1 27.8 0.1 28.94 1.24 C29.05 2.61 29.09 3.98 29.1 5.34 C29.11 6.22 29.12 7.09 29.13 7.99 C29.14 8.94 29.15 9.89 29.15 10.87 C29.18 12.87 29.21 14.88 29.24 16.89 C29.28 20.06 29.32 23.22 29.34 26.39 C29.37 29.45 29.42 32.5 29.47 35.56 C29.47 36.49 29.47 37.42 29.48 38.39 C29.61 45.54 30.33 53.02 35.63 58.31 C39.47 60.67 43.6 60.77 48.01 60.87 C49.03 60.9 49.03 60.9 50.08 60.94 C53.93 60.88 56.04 60.19 59.31 58.14 C64.68 52.22 64.25 45.17 64.29 37.57 C64.3 36.56 64.32 35.55 64.33 34.52 C64.39 30.23 64.43 25.95 64.47 21.66 C64.51 18.53 64.55 15.39 64.6 12.25 C64.6 11.28 64.61 10.31 64.62 9.3 C64.64 7.96 64.64 7.96 64.66 6.58 C64.66 5.79 64.67 5 64.68 4.18 C64.94 2.24 64.94 2.24 66.94 0.24 C70 0 70 0 73.88 0.01 C74.91 0.01 74.91 0.01 75.95 0.01 C77.4 0.02 78.84 0.02 80.28 0.04 C82.5 0.06 84.72 0.06 86.93 0.06 C97.8 0.1 97.8 0.1 98.94 1.24 C99.05 2.82 99.09 4.39 99.1 5.97 C99.11 6.98 99.12 7.99 99.13 9.03 C99.14 10.13 99.14 11.23 99.15 12.36 C99.15 13.49 99.16 14.62 99.16 15.79 C99.17 18.19 99.18 20.59 99.18 22.99 C99.19 26.63 99.22 30.28 99.26 33.93 C99.26 36.26 99.27 38.59 99.27 40.93 C99.28 42.01 99.3 43.09 99.31 44.21 C99.28 54.93 96.94 63.95 89.94 72.24 C78.6 83.41 61.34 84.64 46.21 84.54 C30.56 84.12 14.49 81.79 2.94 70.24 C-6.75 58.84 -5.63 43.44 -5.47 29.44 C-5.43 26.03 -5.43 22.61 -5.43 19.2 C-5.42 17.03 -5.41 14.87 -5.39 12.7 C-5.39 11.68 -5.39 10.66 -5.39 9.61 C-5.37 8.67 -5.36 7.73 -5.35 6.76 C-5.34 5.93 -5.33 5.11 -5.32 4.26 C-4.85 0.67 -3.43 0.27 0 0 Z " fill="#F7F7F7" transform="translate(118.056884765625,564.757080078125)"/>
<path d="M0 0 C5.26 4.47 9.39 10.61 12 17 C12 18.32 12 19.64 12 21 C7.14 21.15 2.29 21.26 -2.57 21.33 C-4.22 21.36 -5.87 21.4 -7.52 21.45 C-23.01 21.93 -23.01 21.93 -27.45 18.06 C-28.71 16.55 -28.71 16.55 -30 15 C-36.04 11.91 -43.83 12.12 -50.38 13.5 C-56.2 15.44 -59.52 18.67 -62.75 23.75 C-65.04 29.7 -65.85 34.69 -63.5 40.75 C-60.77 46.19 -56.79 49.07 -51 51 C-48.07 51.18 -45.18 51.28 -42.25 51.31 C-41.46 51.34 -40.68 51.37 -39.87 51.4 C-32.99 51.47 -28.85 49.69 -23.76 44.89 C-20.16 42.43 -17.88 42.53 -13.55 42.57 C-12.85 42.58 -12.15 42.58 -11.42 42.58 C-9.95 42.59 -8.48 42.61 -7.01 42.64 C-4.74 42.69 -2.48 42.7 -0.22 42.72 C10.82 42.82 10.82 42.82 12 44 C11.67 52.19 7.73 57.6 1.94 63.19 C-12.51 75.42 -33.97 76.21 -52.02 74.85 C-67.09 73.4 -81.58 69.69 -92.28 58.29 C-99.79 48.32 -101.09 37.06 -100 25 C-97.76 14.57 -91.82 5.06 -83 -1 C-60.14 -15.75 -22.51 -14.46 0 0 Z " fill="#F7F7F7" transform="translate(327,574)"/>
<path d="M0 0 C54.51 -0.02 109.02 -0.04 163.52 -0.05 C169.95 -0.05 176.38 -0.05 182.81 -0.05 C184.73 -0.06 184.73 -0.06 186.68 -0.06 C207.43 -0.06 228.19 -0.07 248.94 -0.08 C270.21 -0.09 291.49 -0.09 312.76 -0.09 C325.9 -0.1 339.04 -0.1 352.18 -0.11 C361.17 -0.11 370.17 -0.11 379.17 -0.11 C384.37 -0.11 389.57 -0.11 394.76 -0.12 C399.52 -0.12 404.27 -0.12 409.02 -0.12 C410.74 -0.12 412.47 -0.12 414.2 -0.12 C416.53 -0.13 418.86 -0.13 421.19 -0.12 C422.49 -0.12 423.79 -0.12 425.13 -0.12 C428 0 428 0 429 1 C429 4.96 429 8.92 429 13 C287.43 13 145.86 13 0 13 C0 8.71 0 4.42 0 0 Z " fill="#F7F7F7" transform="translate(0,741)"/>
<path d="M0 0 C1.08 -0 1.08 -0 2.19 -0 C4.63 -0.01 7.07 -0 9.51 -0 C11.27 -0 13.03 -0 14.78 -0.01 C19.64 -0.01 24.49 -0.01 29.34 -0 C34.56 -0 39.78 -0.01 45.01 -0.01 C55.25 -0.01 65.49 -0.01 75.73 -0.01 C84.05 -0.01 92.37 -0.01 100.68 -0.01 C101.87 -0.01 103.05 -0.01 104.27 -0.01 C106.67 -0.01 109.07 -0.01 111.47 -0.01 C134 -0.01 156.53 -0.01 179.06 -0 C198.42 0 217.78 0 237.13 -0 C259.58 -0.01 282.03 -0.01 304.48 -0.01 C306.87 -0.01 309.27 -0.01 311.66 -0.01 C312.83 -0.01 314.01 -0.01 315.22 -0.01 C323.54 -0.01 331.85 -0.01 340.17 -0.01 C350.29 -0.01 360.41 -0.01 370.54 -0.01 C375.71 -0 380.88 -0 386.05 -0.01 C390.77 -0.01 395.5 -0.01 400.23 -0 C401.94 -0 403.66 -0 405.38 -0 C407.7 -0.01 410.01 -0 412.33 0 C413.63 0 414.92 0 416.25 0 C419.1 0.13 419.1 0.13 420.1 1.13 C420.18 2.98 420.19 4.83 420.17 6.69 C420.16 7.7 420.15 8.71 420.14 9.75 C420.12 10.93 420.12 10.93 420.1 12.13 C365.6 12.15 311.09 12.17 256.58 12.18 C250.15 12.18 243.73 12.18 237.3 12.18 C235.38 12.18 235.38 12.18 233.42 12.18 C212.67 12.19 191.92 12.19 171.17 12.2 C149.89 12.21 128.62 12.22 107.34 12.22 C94.2 12.22 81.07 12.23 67.93 12.23 C58.93 12.24 49.93 12.24 40.94 12.24 C35.74 12.24 30.54 12.24 25.34 12.25 C20.59 12.25 15.84 12.25 11.09 12.25 C9.36 12.25 7.63 12.25 5.91 12.25 C3.57 12.25 1.24 12.25 -1.09 12.25 C-2.39 12.25 -3.69 12.25 -5.03 12.25 C-7.9 12.13 -7.9 12.13 -8.9 11.13 C-8.97 9.44 -8.98 7.75 -8.96 6.06 C-8.95 5.14 -8.94 4.23 -8.93 3.28 C-8.92 2.57 -8.91 1.86 -8.9 1.13 C-5.94 -0.35 -3.3 0 0 0 Z " fill="#F7F7F7" transform="translate(853.8963022232056,507.87415885925293)"/>
<path d="M0 0 C0.88 0.01 1.76 0.01 2.67 0.02 C3.59 0.02 4.52 0.01 5.47 0.01 C8.54 0.01 11.61 0.02 14.67 0.03 C16.8 0.03 18.92 0.03 21.05 0.03 C25.51 0.03 29.96 0.04 34.42 0.05 C40.14 0.07 45.87 0.07 51.6 0.07 C55.98 0.07 60.37 0.08 64.76 0.09 C66.87 0.09 68.98 0.09 71.1 0.09 C74.04 0.1 76.99 0.1 79.93 0.11 C80.81 0.11 81.69 0.11 82.6 0.11 C88.62 0.15 88.62 0.15 89.73 1.26 C89.82 2.75 89.84 4.24 89.83 5.73 C89.83 7.08 89.83 7.08 89.82 8.46 C89.81 9.88 89.81 9.88 89.8 11.32 C89.79 12.27 89.79 13.22 89.78 14.2 C89.77 16.55 89.75 18.91 89.73 21.26 C88.83 21.29 87.93 21.31 87 21.34 C83.65 21.43 80.31 21.53 76.97 21.63 C75.52 21.68 74.07 21.72 72.63 21.76 C70.55 21.81 68.47 21.88 66.39 21.94 C65.14 21.98 63.89 22.02 62.6 22.05 C59.84 21.94 59.84 21.94 58.73 23.26 C58.61 25.1 58.56 26.95 58.53 28.79 C58.51 29.97 58.49 31.15 58.47 32.37 C58.45 33.65 58.43 34.94 58.42 36.26 C58.4 37.57 58.38 38.88 58.35 40.23 C58.3 43.71 58.25 47.2 58.2 50.68 C58.15 54.23 58.1 57.78 58.04 61.34 C57.93 68.31 57.83 75.29 57.73 82.26 C46.84 82.26 35.95 82.26 24.73 82.26 C23.02 77.98 22.48 76.28 22.49 71.97 C22.49 70.94 22.48 69.9 22.48 68.84 C22.49 67.74 22.5 66.64 22.5 65.5 C22.5 64.36 22.5 63.22 22.5 62.05 C22.51 59.64 22.52 57.24 22.53 54.83 C22.55 51.14 22.55 47.45 22.55 43.76 C22.55 41.43 22.56 39.09 22.57 36.75 C22.57 35.65 22.57 34.54 22.57 33.4 C22.58 32.38 22.58 31.35 22.59 30.29 C22.59 28.94 22.59 28.94 22.6 27.56 C22.73 25.26 22.73 25.26 23.73 22.26 C22.33 22.22 22.33 22.22 20.9 22.18 C17.45 22.09 14 21.99 10.54 21.89 C9.05 21.84 7.55 21.8 6.05 21.76 C3.91 21.71 1.76 21.64 -0.39 21.58 C-1.68 21.54 -2.97 21.5 -4.31 21.47 C-7.27 21.26 -7.27 21.26 -8.27 20.26 C-8.39 17.27 -8.45 14.31 -8.45 11.32 C-8.47 10.49 -8.48 9.65 -8.49 8.79 C-8.49 7.98 -8.5 7.18 -8.5 6.36 C-8.5 5.62 -8.51 4.88 -8.51 4.12 C-7.88 -0.74 -3.97 0.02 0 0 Z " fill="#F7F7F7" transform="translate(15.266555786132813,564.7400512695313)"/>
<path d="M0 0 C1.18 -0.03 2.36 -0.07 3.57 -0.1 C13.13 -0.16 21.66 1.92 29.5 7.62 C38.03 16.77 40.64 25.95 40.36 38.2 C39.62 48.35 35.76 54.68 28.12 61.44 C21.99 65.52 16.45 66.56 9.21 66.57 C8.22 66.57 8.22 66.57 7.21 66.57 C5.83 66.57 4.45 66.57 3.06 66.57 C0.93 66.56 -1.19 66.57 -3.32 66.57 C-4.66 66.57 -6.01 66.57 -7.36 66.57 C-8.58 66.57 -9.81 66.57 -11.07 66.57 C-13.88 66.44 -13.88 66.44 -14.88 65.44 C-14.98 63.48 -15.01 61.53 -15.02 59.57 C-15.03 58.32 -15.03 57.06 -15.04 55.77 C-15.04 54.39 -15.04 53.01 -15.04 51.63 C-15.05 50.22 -15.05 48.82 -15.05 47.41 C-15.06 44.46 -15.06 41.51 -15.06 38.56 C-15.06 34.77 -15.07 30.98 -15.09 27.19 C-15.1 24.29 -15.1 21.38 -15.1 18.48 C-15.1 17.08 -15.11 15.68 -15.12 14.29 C-15.13 12.33 -15.12 10.38 -15.12 8.43 C-15.12 7.32 -15.12 6.21 -15.12 5.06 C-14.44 -2.16 -5.47 0.03 0 0 Z " fill="#F7F7F7" transform="translate(805.875,710.5625)"/>
<path d="M0 0 C1.12 -0.02 2.23 -0.05 3.38 -0.07 C10.37 -0.1 14.97 0.57 20.88 4.38 C25.35 9.64 25.48 14.54 25.27 21.34 C24.6 26.47 22.48 28.77 18.88 32.38 C19.78 33.03 20.69 33.7 21.62 34.38 C25.79 37.88 28.24 42.02 29.26 47.39 C29.57 52.69 27.97 57.09 24.88 61.38 C19.39 65.83 15.3 66.5 8.39 66.51 C7.15 66.51 5.9 66.51 4.62 66.51 C3.32 66.51 2.02 66.5 0.69 66.5 C-1.28 66.51 -1.28 66.51 -3.28 66.51 C-4.52 66.51 -5.76 66.51 -7.04 66.51 C-8.19 66.51 -9.33 66.51 -10.5 66.5 C-13.12 66.38 -13.12 66.38 -14.12 65.38 C-14.23 63.42 -14.26 61.47 -14.27 59.51 C-14.28 58.26 -14.28 57 -14.29 55.71 C-14.29 54.33 -14.29 52.95 -14.29 51.57 C-14.3 50.16 -14.3 48.75 -14.3 47.35 C-14.31 44.4 -14.31 41.44 -14.31 38.49 C-14.31 34.71 -14.32 30.92 -14.34 27.13 C-14.35 24.22 -14.35 21.32 -14.35 18.41 C-14.35 17.02 -14.36 15.62 -14.37 14.22 C-14.38 12.27 -14.37 10.32 -14.37 8.37 C-14.37 7.26 -14.37 6.15 -14.37 5 C-13.71 -2.08 -5.38 0.01 0 0 Z " fill="#F7F7F7" transform="translate(671.125,710.625)"/>
<path d="M0 0 C1.95 -0.29 1.95 -0.29 4.12 -0.19 C5.4 -0.13 6.68 -0.06 8 0 C14.22 15.47 19.73 31.18 25 47 C25.66 47 26.32 47 27 47 C27.21 45.82 27.41 44.65 27.62 43.44 C28.75 38.2 30.78 33.37 32.97 28.49 C36.11 21.15 35.29 15.88 32.5 8.56 C32.26 7.93 32.02 7.29 31.78 6.63 C31.2 5.09 30.6 3.54 30 2 C32 0 32 0 35.12 -0.12 C36.07 -0.08 37.02 -0.04 38 0 C42.33 8.19 45.92 16.51 49.15 25.19 C49.89 27.16 50.63 29.13 51.38 31.1 C55 40.71 55 40.71 55 43 C55.66 43 56.32 43 57 43 C57.33 43.66 57.66 44.32 58 45 C58.35 43.95 58.7 42.9 59.05 41.82 C60.36 37.9 61.66 33.98 62.96 30.06 C63.52 28.37 64.09 26.68 64.65 24.98 C65.46 22.54 66.27 20.1 67.08 17.66 C67.45 16.54 67.45 16.54 67.83 15.4 C68.54 13.26 69.27 11.13 70 9 C70.26 8.25 70.51 7.49 70.78 6.72 C72.76 1.12 72.76 1.12 75 0 C80.54 -0.23 80.54 -0.23 83 1 C82.31 5.23 80.96 8.99 79.41 12.98 C79.02 13.99 79.02 13.99 78.62 15.02 C78.06 16.47 77.5 17.92 76.94 19.37 C75.46 23.18 73.99 27 72.52 30.81 C72.23 31.58 71.93 32.35 71.63 33.14 C67.3 44.39 63.15 55.69 59 67 C58.01 67 57.02 67 56 67 C52.64 60.58 49.96 54.02 47.38 47.25 C46.59 45.21 45.81 43.18 45.02 41.14 C44.68 40.25 44.34 39.36 43.99 38.44 C43.09 36.23 42.1 34.12 41 32 C40.67 32.84 40.34 33.68 40 34.54 C35.56 45.79 30.8 56.9 26 68 C25.34 68 24.68 68 24 68 C24 67.34 24 66.68 24 66 C23.34 66 22.68 66 22 66 C18.8 57.59 15.59 49.18 12.39 40.78 C12.04 39.86 11.69 38.95 11.34 38.01 C10.63 36.16 9.93 34.31 9.23 32.46 C7.4 27.63 5.53 22.82 3.61 18.02 C3.23 17.06 2.85 16.1 2.46 15.11 C1.73 13.27 0.99 11.43 0.24 9.6 C-0.09 8.77 -0.41 7.95 -0.74 7.1 C-1.04 6.38 -1.33 5.66 -1.63 4.91 C-2 3 -2 3 0 0 Z " fill="#F7F7F7" transform="translate(454,711)"/>
<path d="M0 0 C3.54 1.51 5.82 3.57 8.52 6.29 C9.38 7.15 10.24 8.01 11.12 8.89 C12.01 9.8 12.9 10.7 13.81 11.62 C14.69 12.5 15.57 13.38 16.47 14.29 C20.91 18.76 25.2 23.3 29.31 28.08 C32.33 31.51 35.57 34.72 38.81 37.94 C39.48 38.61 40.15 39.28 40.83 39.97 C41.79 40.93 41.79 40.93 42.77 41.9 C43.63 42.76 43.63 42.76 44.51 43.64 C45.97 45.1 45.97 45.1 48 46 C48.02 44.71 48.04 43.42 48.06 42.08 C48.14 37.3 48.22 32.52 48.32 27.74 C48.36 25.67 48.39 23.59 48.42 21.52 C48.47 18.55 48.53 15.58 48.59 12.6 C48.6 11.67 48.61 10.74 48.62 9.78 C48.64 8.92 48.66 8.06 48.68 7.17 C48.69 6.41 48.71 5.66 48.72 4.87 C49 3 49 3 51 1 C54.06 0.81 54.06 0.81 57 1 C58 2 58 2 58.12 4.66 C58.12 5.85 58.12 7.04 58.11 8.26 C58.11 8.92 58.11 9.57 58.11 10.24 C58.11 12.41 58.11 14.58 58.1 16.75 C58.1 18.25 58.09 19.76 58.09 21.26 C58.09 25.21 58.08 29.17 58.07 33.13 C58.06 37.16 58.05 41.2 58.05 45.23 C58.04 53.15 58.02 61.08 58 69 C51.75 64.88 46.96 60.34 42.14 54.64 C37.05 48.8 31.53 43.38 26.05 37.92 C24.17 36.05 22.3 34.17 20.43 32.29 C19.24 31.1 18.05 29.91 16.86 28.72 C16.3 28.16 15.74 27.6 15.16 27.02 C12.35 24.16 12.35 24.16 9 22 C9 36.85 9 51.7 9 67 C6.36 67 3.72 67 1 67 C-0.55 65.45 -0.16 63.94 -0.21 61.78 C-0.23 60.88 -0.25 59.98 -0.27 59.05 C-0.28 58.07 -0.3 57.09 -0.32 56.08 C-0.34 55.07 -0.36 54.06 -0.38 53.01 C-0.42 50.86 -0.46 48.71 -0.5 46.56 C-0.56 43.31 -0.63 40.05 -0.69 36.8 C-0.81 30.87 -0.91 24.93 -1 19 C-1.01 18.26 -1.02 17.53 -1.03 16.77 C-1.06 14.97 -1.08 13.16 -1.09 11.36 C-1.1 10.44 -1.11 9.52 -1.11 8.58 C-0.98 5.66 -0.53 2.87 0 0 Z " fill="#F6F6F6" transform="translate(1191,710)"/>
<path d="M0 0 C0.66 0.66 1.32 1.32 2 2 C1.62 5.62 1.62 5.62 1 9 C-2.5 10.17 -3.31 9.76 -6.69 8.56 C-15.56 5.79 -21.69 6.75 -30 11 C-36 14.61 -38.83 20.02 -40.75 26.56 C-41.56 34.5 -40.65 41.48 -35.49 47.87 C-28.87 54.06 -21.39 55.36 -12.58 55.2 C-9.58 55.02 -9.58 55.02 -5 54 C-5 49.71 -5 45.42 -5 41 C-9.25 40.66 -9.25 40.66 -13.5 40.32 C-16 40 -16 40 -17 39 C-17.19 36.06 -17.19 36.06 -17 33 C-15 31 -15 31 -13.04 30.76 C-12.27 30.76 -11.49 30.77 -10.68 30.77 C-9.84 30.77 -8.99 30.77 -8.12 30.78 C-6.79 30.79 -6.79 30.79 -5.44 30.81 C-4.55 30.81 -3.66 30.81 -2.74 30.81 C3.86 30.86 3.86 30.86 5 32 C5.09 34.07 5.11 36.15 5.1 38.22 C5.09 39.48 5.09 40.74 5.09 42.04 C5.08 43.38 5.07 44.72 5.06 46.06 C5.06 47.41 5.05 48.75 5.05 50.1 C5.04 53.4 5.02 56.7 5 60 C-6.45 65.37 -18.37 67.36 -30.69 63.04 C-39.26 59.18 -45.49 53.87 -49.25 45.12 C-52.97 34.92 -52.16 26.38 -47.86 16.34 C-43.17 7.45 -36.07 1.78 -26.75 -1.81 C-17.89 -4.48 -8.45 -3.67 0 0 Z " fill="#F7F7F7" transform="translate(1145,713)"/>
<path d="M0 0 C5.97 1.23 11.54 3.87 15.36 8.72 C20.48 16.73 20.43 24.48 19.78 33.72 C18.23 39.73 14.79 43.24 9.78 46.72 C4.91 49.38 -0.07 48.98 -5.47 48.91 C-6.85 48.91 -6.85 48.91 -8.27 48.9 C-15.08 48.86 -15.08 48.86 -16.22 47.72 C-16.33 46.32 -16.37 44.92 -16.38 43.52 C-16.39 42.63 -16.4 41.74 -16.41 40.82 C-16.41 39.85 -16.42 38.88 -16.42 37.88 C-16.43 36.89 -16.43 35.9 -16.44 34.88 C-16.45 32.78 -16.46 30.68 -16.46 28.58 C-16.47 25.36 -16.5 22.15 -16.53 18.93 C-16.54 16.89 -16.54 14.86 -16.55 12.82 C-16.56 11.85 -16.57 10.89 -16.58 9.89 C-16.58 9 -16.58 8.1 -16.58 7.17 C-16.58 5.99 -16.58 5.99 -16.59 4.78 C-15.21 -2.93 -5.78 -0.73 0 0 Z " fill="#000002" transform="translate(816.21875,719.28125)"/>
<path d="M0 0 C4.56 3.05 7.05 7.56 9.19 12.48 C10.17 18.91 9.98 24.76 7 30.61 C3.9 34.14 1.24 36.68 -3.25 38.17 C-6.16 38.35 -9.03 38.45 -11.94 38.48 C-12.72 38.51 -13.49 38.54 -14.29 38.57 C-21.64 38.65 -26.77 36.49 -32.12 31.48 C-35.44 26.31 -36.94 21.23 -35.69 15.11 C-34.05 9.96 -31.83 4.92 -27.25 1.82 C-18.89 -2.44 -8.84 -3.91 0 0 Z " fill="#000002" transform="translate(668.25,587.828125)"/>
<path d="M0 0 C1.68 0.04 3.35 0.08 5.03 0.14 C6.35 0.17 6.35 0.17 7.7 0.21 C9.57 0.26 11.44 0.31 13.3 0.37 C16.17 0.46 19.04 0.54 21.91 0.61 C23.72 0.66 25.53 0.71 27.34 0.76 C28.2 0.79 29.07 0.81 29.96 0.83 C36 1.03 36 1.03 37.12 2.15 C37.16 4.48 37.16 6.82 37.12 9.15 C35.67 9.19 35.67 9.19 34.2 9.23 C30.63 9.32 27.07 9.42 23.5 9.52 C21.95 9.57 20.41 9.61 18.86 9.65 C16.65 9.71 14.43 9.77 12.21 9.83 C11.52 9.85 10.83 9.87 10.11 9.89 C6.83 9.72 6.83 9.72 4.12 11.15 C4.04 14.02 4.02 16.85 4.05 19.71 C4.08 22.5 4.1 25.28 4.12 28.15 C13.69 28.48 23.26 28.81 33.12 29.15 C34.6 32.11 34.18 34.89 34.12 38.15 C33.24 38.18 32.37 38.2 31.47 38.23 C28.24 38.32 25.01 38.42 21.78 38.52 C20.38 38.57 18.98 38.61 17.58 38.65 C15.57 38.71 13.57 38.77 11.56 38.83 C9.74 38.89 9.74 38.89 7.89 38.95 C5.21 38.84 5.21 38.84 4.12 40.15 C4.04 43.02 4.02 45.85 4.05 48.71 C4.08 51.5 4.1 54.28 4.12 57.15 C20.45 57.65 20.45 57.65 37.12 58.15 C37.12 58.81 37.12 59.47 37.12 60.15 C37.78 60.15 38.44 60.15 39.12 60.15 C39.12 62.46 39.12 64.77 39.12 67.15 C32.87 67.18 26.62 67.19 20.37 67.21 C18.25 67.21 16.12 67.22 13.99 67.23 C10.94 67.24 7.89 67.24 4.84 67.25 C3.4 67.26 3.4 67.26 1.94 67.26 C1.06 67.26 0.18 67.26 -0.73 67.26 C-1.51 67.27 -2.29 67.27 -3.09 67.27 C-4.88 67.15 -4.88 67.15 -5.88 66.15 C-5.99 64.17 -6.02 62.18 -6.03 60.19 C-6.03 58.92 -6.04 57.64 -6.05 56.33 C-6.05 54.93 -6.05 53.53 -6.05 52.12 C-6.05 50.7 -6.06 49.27 -6.06 47.84 C-6.07 44.84 -6.07 41.84 -6.07 38.84 C-6.07 34.99 -6.08 31.15 -6.1 27.3 C-6.11 24.35 -6.11 21.39 -6.11 18.44 C-6.11 17.02 -6.12 15.6 -6.13 14.18 C-6.13 12.2 -6.13 10.22 -6.13 8.24 C-6.13 7.11 -6.13 5.98 -6.13 4.81 C-5.71 0.32 -4.39 0.17 0 0 Z " fill="#F7F7F7" transform="translate(890.883056640625,709.848876953125)"/>
<path d="M0 0 C0.88 0.01 1.77 0.01 2.68 0.02 C3.58 0.02 4.49 0.02 5.42 0.02 C7.33 0.03 9.25 0.03 11.16 0.05 C14.1 0.06 17.04 0.07 19.98 0.07 C21.84 0.07 23.7 0.08 25.55 0.08 C26.88 0.09 26.88 0.09 28.23 0.09 C34.43 0.14 34.43 0.14 35.55 1.25 C35.59 3.59 35.59 5.92 35.55 8.25 C34.1 8.29 34.1 8.29 32.63 8.33 C29.06 8.42 25.5 8.52 21.93 8.62 C20.39 8.67 18.84 8.71 17.3 8.75 C15.08 8.81 12.86 8.87 10.65 8.94 C9.95 8.95 9.26 8.97 8.54 8.99 C5.26 8.82 5.26 8.82 2.55 10.25 C2.47 13.11 2.46 15.95 2.49 18.81 C2.49 19.62 2.49 20.43 2.5 21.26 C2.51 23.26 2.53 25.25 2.55 27.25 C3.39 27.28 4.23 27.3 5.1 27.33 C8.22 27.42 11.34 27.52 14.46 27.62 C15.81 27.67 17.16 27.71 18.51 27.75 C20.45 27.81 22.39 27.87 24.33 27.94 C25.49 27.97 26.66 28.01 27.86 28.05 C30.55 28.25 30.55 28.25 31.55 29.25 C31.69 31.92 31.59 34.58 31.55 37.25 C30.7 37.28 29.86 37.3 28.99 37.33 C25.88 37.42 22.76 37.52 19.64 37.62 C18.29 37.67 16.94 37.71 15.59 37.75 C13.65 37.81 11.71 37.87 9.77 37.94 C8.6 37.97 7.43 38.01 6.23 38.05 C3.63 37.95 3.63 37.95 2.55 39.25 C2.47 42.12 2.46 44.95 2.49 47.81 C2.51 50.6 2.53 53.38 2.55 56.25 C18.88 56.75 18.88 56.75 35.55 57.25 C37.55 63.25 37.55 63.25 37.55 66.25 C31.3 66.28 25.05 66.3 18.8 66.31 C16.68 66.31 14.55 66.32 12.42 66.33 C9.37 66.34 6.32 66.35 3.27 66.35 C1.83 66.36 1.83 66.36 0.37 66.37 C-0.51 66.37 -1.39 66.37 -2.3 66.37 C-3.08 66.37 -3.86 66.37 -4.66 66.37 C-6.45 66.25 -6.45 66.25 -7.45 65.25 C-7.59 63.3 -7.65 61.34 -7.69 59.39 C-7.72 58.13 -7.74 56.88 -7.77 55.58 C-7.79 54.2 -7.82 52.82 -7.84 51.44 C-7.86 50.04 -7.89 48.63 -7.92 47.22 C-7.97 44.27 -8.02 41.32 -8.06 38.37 C-8.12 34.58 -8.2 30.79 -8.28 27.01 C-8.33 24.1 -8.38 21.2 -8.43 18.29 C-8.45 16.89 -8.48 15.5 -8.51 14.1 C-8.55 12.15 -8.58 10.2 -8.6 8.25 C-8.62 7.13 -8.64 6.02 -8.66 4.88 C-8.22 -0.66 -4.7 0.02 0 0 Z " fill="#F7F7F7" transform="translate(581.4520416259766,710.7477569580078)"/>
<path d="M0 0 C0 0.66 0 1.32 0 2 C0.66 2 1.32 2 2 2 C1.67 3.98 1.34 5.96 1 8 C-1.86 7.54 -4.68 7.08 -7.5 6.38 C-14.51 4.77 -19.33 5.31 -26 8 C-26.25 9.24 -26.5 10.48 -26.75 11.75 C-26.89 12.45 -27.03 13.14 -27.17 13.86 C-27.17 16.11 -27.17 16.11 -25.6 18 C-21.23 21.36 -16.15 23.25 -11.09 25.38 C-5.4 27.92 -1.42 30.71 2 36 C3.85 41.54 3.77 47.25 3 53 C0.55 57.84 -3.66 61.8 -8.86 63.6 C-18.74 65.44 -28.32 64.07 -37.12 59.31 C-37.74 58.88 -38.36 58.45 -39 58 C-38.12 53.25 -38.12 53.25 -37 51 C-33.75 51.52 -30.83 52.42 -27.75 53.56 C-22.06 55.5 -16.89 55.74 -11.06 54.25 C-8.53 52.72 -7.86 51.83 -7 49 C-6.52 45.28 -6.79 43.4 -8.51 40.05 C-11.67 36.18 -14.71 34.91 -19.25 33.06 C-33.6 26.8 -33.6 26.8 -37 20 C-37.81 13.76 -37.32 8.93 -33.62 3.76 C-30.11 -0.05 -26.1 -2.35 -21.19 -3.88 C-13.54 -4.18 -6.86 -3.5 0 0 Z " fill="#F7F7F7" transform="translate(1004,714)"/>
<path d="M0 0 C1 -0 1 -0 2.03 -0.01 C3.44 -0.01 4.86 -0 6.28 0 C8.43 0.02 10.58 0.01 12.73 -0.01 C14.11 -0.01 15.49 -0 16.88 0 C18.12 0 19.37 0 20.66 0.01 C25.52 0.36 29.89 0.75 33.27 4.45 C34.55 8.06 34.07 10.57 33.27 14.27 C25.53 17.58 18.24 17.67 9.97 17.55 C7.75 17.52 5.52 17.51 3.29 17.5 C-7.57 17.43 -7.57 17.43 -8.73 16.27 C-8.86 13.96 -8.91 11.64 -8.92 9.33 C-8.93 8.06 -8.95 6.79 -8.96 5.49 C-8.52 -0.63 -5.3 0.01 0 0 Z " fill="#000002" transform="translate(395.73046875,585.734375)"/>
<path d="M0 0 C1 -0 1 -0 2.03 -0.01 C3.44 -0.01 4.86 -0 6.28 0 C8.43 0.02 10.58 0.01 12.73 -0.01 C14.11 -0.01 15.49 -0 16.88 0 C18.12 0 19.37 0 20.66 0.01 C24.47 0.28 27.67 0.98 31.27 2.27 C33.4 4.81 34.14 6.59 34.77 9.83 C34.27 12.27 34.27 12.27 32.14 14.52 C27.07 17.6 21.76 17.39 15.94 17.4 C14.92 17.4 14.92 17.4 13.89 17.4 C12.47 17.4 11.05 17.4 9.63 17.4 C7.45 17.39 5.27 17.4 3.08 17.4 C1.7 17.4 0.32 17.4 -1.06 17.4 C-2.32 17.4 -3.57 17.4 -4.87 17.4 C-7.73 17.27 -7.73 17.27 -8.73 16.27 C-8.86 13.96 -8.91 11.64 -8.92 9.33 C-8.93 8.06 -8.95 6.79 -8.96 5.49 C-8.52 -0.63 -5.3 0.01 0 0 Z " fill="#000002" transform="translate(891.73046875,585.734375)"/>
<path d="M0 0 C1.31 -0 2.62 -0.01 3.97 -0.01 C5 -0 5 -0 6.05 0 C8.12 0.02 10.19 0.01 12.25 -0.01 C25.45 0.02 25.45 0.02 31.52 2.27 C34.04 6.04 34.26 8.83 33.52 13.27 C30.76 16.56 27.64 16.72 23.52 17.27 C21.08 17.36 18.64 17.4 16.19 17.4 C15.18 17.4 15.18 17.4 14.14 17.4 C12.72 17.4 11.3 17.4 9.88 17.4 C7.7 17.39 5.52 17.4 3.34 17.4 C1.96 17.4 0.57 17.4 -0.81 17.4 C-2.06 17.4 -3.32 17.4 -4.61 17.4 C-7.48 17.27 -7.48 17.27 -8.48 16.27 C-8.6 13.96 -8.65 11.64 -8.66 9.33 C-8.68 8.06 -8.69 6.79 -8.71 5.49 C-8.28 -0.52 -5.23 0.01 0 0 Z " fill="#000002" transform="translate(520.4765625,585.734375)"/>
<path d="M0 0 C2.33 -0.04 4.67 -0.04 7 0 C8 1 8 1 8.12 3.59 C8.12 5.32 8.12 5.32 8.11 7.08 C8.11 8.38 8.11 9.68 8.11 11.02 C8.11 12.45 8.1 13.89 8.1 15.32 C8.1 16.77 8.09 18.23 8.09 19.68 C8.09 23.52 8.08 27.36 8.07 31.2 C8.06 35.11 8.05 39.03 8.05 42.94 C8.04 50.63 8.02 58.31 8 66 C1.85 66.1 1.85 66.1 0 66 C-1.79 64.21 -1.13 61.55 -1.13 59.14 C-1.13 57.88 -1.14 56.63 -1.14 55.33 C-1.14 53.95 -1.14 52.57 -1.13 51.19 C-1.13 49.79 -1.13 48.38 -1.14 46.97 C-1.14 44.02 -1.14 41.07 -1.13 38.12 C-1.12 34.33 -1.13 30.54 -1.13 26.75 C-1.14 23.85 -1.14 20.94 -1.13 18.04 C-1.13 16.64 -1.13 15.24 -1.14 13.85 C-1.14 11.9 -1.13 9.95 -1.13 7.99 C-1.13 6.88 -1.13 5.77 -1.13 4.63 C-1 2 -1 2 0 0 Z " fill="#F7F7F7" transform="translate(1047,711)"/>
<path d="M0 0 C1.86 0.01 1.86 0.01 3.76 0.02 C4.99 0.01 6.23 0.01 7.5 0 C10.64 0.25 12.31 0.54 14.88 2.27 C17.29 5.19 18.12 7.61 18.32 11.33 C17.88 15.27 17.88 15.27 16.13 17.7 C11.88 20.66 7.79 20.4 2.7 20.39 C0.82 20.39 0.82 20.39 -1.1 20.4 C-4.12 20.27 -4.12 20.27 -5.12 19.27 C-5.24 16.44 -5.3 13.65 -5.3 10.83 C-5.32 10.04 -5.33 9.25 -5.34 8.44 C-5.35 6.38 -5.24 4.32 -5.12 2.27 C-3.12 0.27 -3.12 0.27 0 0 Z " fill="#000002" transform="translate(672.1171875,748.734375)"/>
<path d="M0 0 C5.25 0.34 9.21 0.85 13.25 4.38 C15.23 8.02 15.86 11.19 14.81 15.25 C13.2 17.95 13.2 17.95 10.81 20.25 C7.65 20.92 7.65 20.92 4.19 21 C-0.16 20.98 -0.16 20.98 -4.19 22.25 C-5.48 18.39 -5.37 14.71 -5.38 10.69 C-5.39 9.91 -5.4 9.13 -5.41 8.32 C-5.42 6.3 -5.31 4.27 -5.19 2.25 C-3.19 0.25 -3.19 0.25 0 0 Z " fill="#000002" transform="translate(672.1875,718.75)"/>
<path d="M0 0 C4.36 3.94 7.03 8.1 9.81 13.25 C10.42 14.35 10.42 14.35 11.04 15.47 C14 20.83 14 20.83 14 22 C5.75 22 -2.5 22 -11 22 C-11 18.58 -10.31 17.45 -8.59 14.55 C-8.1 13.7 -7.6 12.86 -7.09 11.98 C-6.3 10.66 -6.3 10.66 -5.5 9.31 C-4.98 8.42 -4.45 7.53 -3.91 6.61 C-2.61 4.4 -1.31 2.2 0 0 Z " fill="#000002" transform="translate(1033,591)"/>
</svg>
