<?xml version="1.0" standalone="no"?>
<!DOCTYPE svg PUBLIC "-//W3C//DTD SVG 20010904//EN"
 "http://www.w3.org/TR/2001/REC-SVG-20010904/DTD/svg10.dtd">
<svg version="1.0" xmlns="http://www.w3.org/2000/svg"
 width="500.000000pt" height="500.000000pt" viewBox="0 0 500.000000 500.000000"
 preserveAspectRatio="xMidYMid meet">
<metadata>
Created by potrace 1.16, written by Peter Selinger 2001-2019
</metadata>
<g transform="translate(0.000000,500.000000) scale(0.100000,-0.100000)"
fill="#000000" stroke="none">
<path d="M0 3550 l0 -1450 840 0 840 0 0 -25 0 -25 -840 0 -840 0 0 -1025 0
-1025 2500 0 2500 0 0 2500 0 2500 -2500 0 -2500 0 0 -1450z m4980 -565 l0
-25 -837 2 -838 3 -3 23 -3 22 840 0 841 0 0 -25z m-4570 -235 l0 -40 -60 0
-60 0 0 -120 0 -120 -70 0 -70 0 0 120 0 120 -60 0 -60 0 0 40 0 40 190 0 190
0 0 -40z m170 -60 c0 -112 14 -140 68 -140 57 0 67 18 70 134 l4 106 64 0 64
0 0 -106 c0 -129 -14 -165 -74 -197 -57 -30 -193 -31 -251 -2 -58 29 -76 67
-82 179 -3 52 -3 101 0 110 5 12 21 16 72 16 l65 0 0 -100z m683 71 c31 -19
67 -65 67 -86 0 -3 -31 -5 -69 -5 -48 0 -72 4 -81 15 -33 40 -123 24 -147 -26
-16 -32 -1 -84 27 -99 31 -16 86 -11 113 10 19 15 40 20 91 20 36 0 66 -3 66
-7 0 -23 -44 -75 -78 -92 -89 -45 -244 -35 -306 20 -44 38 -60 78 -53 135 6
58 31 93 88 122 39 21 55 23 144 20 84 -3 106 -7 138 -27z m489 7 c70 -31 88
-123 32 -167 -32 -25 -107 -41 -194 -41 l-70 0 0 -45 0 -45 -70 0 -70 0 0 161
0 161 168 -4 c123 -3 177 -9 204 -20z m480 4 c49 -20 68 -48 68 -97 0 -35 -6
-52 -23 -69 -22 -22 -22 -23 -5 -47 10 -13 21 -39 24 -56 l7 -33 -66 0 c-62 0
-65 1 -72 28 -12 50 -32 62 -102 62 l-63 0 0 -45 0 -45 -65 0 -65 0 0 161 0
161 168 -4 c92 -3 179 -10 194 -16z m481 -11 c47 -29 69 -71 70 -131 1 -93
-64 -153 -179 -165 -165 -18 -275 59 -261 181 6 58 31 93 88 122 39 21 55 23
144 20 84 -3 106 -7 138 -27z m480 0 c21 -12 44 -36 52 -52 l16 -29 -69 0
c-43 0 -81 6 -101 16 -54 27 -115 5 -134 -48 -9 -24 11 -76 33 -88 24 -13 100
-13 120 0 12 8 11 10 -7 10 -19 0 -23 6 -23 30 l0 30 90 0 90 0 0 -80 0 -80
-29 0 c-16 0 -31 6 -34 14 -5 13 -10 13 -34 1 -44 -22 -132 -29 -197 -15 -99
20 -153 87 -143 176 6 58 31 93 88 122 39 21 55 23 144 20 84 -3 106 -7 138
-27z m489 11 c49 -20 68 -48 68 -97 0 -35 -6 -52 -23 -69 -22 -22 -22 -23 -5
-47 10 -13 21 -39 24 -56 l7 -33 -66 0 c-62 0 -65 1 -72 28 -12 50 -32 62
-102 62 l-63 0 0 -45 0 -45 -65 0 -65 0 0 161 0 161 168 -4 c92 -3 179 -10
194 -16z m520 -137 c53 -82 97 -153 97 -157 1 -5 -28 -8 -63 -8 -57 0 -65 3
-80 25 -16 24 -21 25 -115 25 -94 0 -99 -1 -115 -25 -15 -22 -23 -25 -81 -25
-36 0 -65 2 -65 5 0 2 28 48 63 102 35 54 80 124 101 156 l36 58 62 -3 63 -3
97 -150z m367 46 c37 -57 70 -104 76 -104 5 0 39 47 75 104 l66 104 82 3 82 3
0 -161 0 -160 -70 0 -70 0 0 98 0 97 -58 -97 -57 -98 -50 0 -51 0 -57 98 -57
97 0 -97 0 -98 -70 0 -70 0 0 160 0 161 82 -3 82 -3 65 -104z m-2729 -551 c18
-49 34 -90 36 -90 1 0 12 25 23 55 19 51 20 59 6 90 -13 32 -13 35 4 35 13 0
27 -22 51 -85 18 -47 36 -85 39 -85 4 0 19 38 35 85 22 70 31 85 47 85 12 0
19 -4 17 -8 -1 -5 -23 -63 -48 -130 -25 -67 -48 -122 -51 -122 -3 0 -18 32
-34 71 l-28 72 -30 -72 c-16 -39 -33 -71 -36 -71 -5 0 -67 157 -99 248 -2 7 4
12 16 12 16 0 26 -18 52 -90z m570 75 c0 -12 -14 -15 -65 -15 l-65 0 0 -40 0
-40 60 0 c53 0 60 -2 60 -20 0 -18 -7 -20 -60 -20 l-60 0 0 -40 0 -40 70 0
c56 0 70 -3 70 -15 0 -12 -17 -15 -90 -15 l-90 0 0 130 0 130 85 0 c69 0 85
-3 85 -15z m288 -1 c26 -18 31 -74 8 -93 -12 -10 -10 -16 10 -36 31 -31 30
-59 -1 -90 -20 -21 -34 -25 -85 -25 l-60 0 0 130 0 130 53 0 c31 0 61 -6 75
-16z m559 -10 c15 -12 35 -40 43 -62 13 -37 13 -47 0 -84 -22 -62 -66 -88
-146 -88 l-64 0 0 131 0 131 70 -4 c50 -3 77 -9 97 -24z m373 11 c0 -12 -14
-15 -65 -15 l-65 0 0 -40 0 -39 58 -3 c43 -2 57 -7 57 -18 0 -11 -14 -16 -57
-18 l-58 -3 0 -39 0 -40 65 0 c51 0 65 -3 65 -15 0 -12 -16 -15 -85 -15 l-85
0 0 130 0 130 85 0 c69 0 85 -3 85 -15z m278 9 c12 -4 22 -13 22 -21 0 -12 -8
-14 -35 -9 -49 10 -75 0 -75 -28 0 -17 12 -28 51 -46 75 -36 90 -80 43 -127
-22 -22 -32 -25 -75 -21 -55 6 -80 21 -62 39 8 8 17 8 31 0 46 -25 98 -4 90
36 -2 10 -25 30 -52 44 -53 29 -66 43 -66 76 0 48 61 75 128 57z m556 0 c9 -3
16 -12 16 -19 0 -9 -16 -12 -54 -11 -44 1 -59 -3 -79 -22 -32 -30 -41 -65 -27
-107 22 -66 140 -91 140 -29 0 19 -5 24 -25 24 -18 0 -25 5 -25 20 0 17 7 20
45 20 l45 0 0 -55 c0 -50 -2 -56 -26 -65 -38 -15 -101 -12 -134 5 -79 41 -80
187 -2 229 28 16 98 21 126 10z m293 -86 l93 -93 0 93 c0 75 3 92 15 92 13 0
15 -21 15 -132 l0 -133 -95 95 -95 95 0 -93 c0 -85 -1 -92 -20 -92 -19 0 -20
7 -20 130 0 72 3 130 7 130 4 0 49 -42 100 -92z"/>
<path d="M2512 2695 c-32 -24 -43 -58 -31 -95 13 -37 36 -50 84 -50 70 0 110
77 67 130 -23 29 -89 37 -120 15z"/>
<path d="M3130 2090 c0 -89 2 -100 18 -100 37 0 92 22 107 43 17 25 20 79 4
109 -12 23 -66 48 -104 48 l-25 0 0 -100z"/>
</g>
</svg>
